<?xml version="1.0" encoding="UTF-8" standalone="no"?>
<!-- Created with Inkscape (http://www.inkscape.org/) -->

<svg
   xmlns:dc="http://purl.org/dc/elements/1.1/"
   xmlns:cc="http://creativecommons.org/ns#"
   xmlns:rdf="http://www.w3.org/1999/02/22-rdf-syntax-ns#"
   xmlns:svg="http://www.w3.org/2000/svg"
   xmlns="http://www.w3.org/2000/svg"
   xmlns:sodipodi="http://sodipodi.sourceforge.net/DTD/sodipodi-0.dtd"
   xmlns:inkscape="http://www.inkscape.org/namespaces/inkscape"
   width="408.05679"
   height="244.87758"
   id="svg4623"
   version="1.1"
   inkscape:version="0.48.4 r9939"
   sodipodi:docname="Nytt dokument 20">
  <defs
     id="defs4625" />
  <sodipodi:namedview
     id="base"
     pagecolor="#ffffff"
     bordercolor="#666666"
     borderopacity="1.0"
     inkscape:pageopacity="0.0"
     inkscape:pageshadow="2"
     inkscape:zoom="1.3216336"
     inkscape:cx="407.27436"
     inkscape:cy="60.768979"
     inkscape:document-units="px"
     inkscape:current-layer="layer1"
     showgrid="false"
     fit-margin-top="0"
     fit-margin-left="0"
     fit-margin-right="0"
     fit-margin-bottom="0"
     inkscape:window-width="1366"
     inkscape:window-height="705"
     inkscape:window-x="-8"
     inkscape:window-y="-8"
     inkscape:window-maximized="1" />
  <metadata
     id="metadata4628">
    <rdf:RDF>
      <cc:Work
         rdf:about="">
        <dc:format>image/svg+xml</dc:format>
        <dc:type
           rdf:resource="http://purl.org/dc/dcmitype/StillImage" />
        <dc:title></dc:title>
      </cc:Work>
    </rdf:RDF>
  </metadata>
  <g
     inkscape:label="Layer 1"
     inkscape:groupmode="layer"
     id="layer1"
     transform="translate(-3.0684497,13.704615)">
    <path
       style="fill:#2b0000"
       d="m 228.71095,230.62162 c -8.72017,-1.1994 -16.31624,-2.52945 -18.15886,-3.17956 -1.12267,-0.39611 -2.57481,-0.72019 -3.22696,-0.72019 -0.65215,0 -4.25502,-1.02544 -8.00637,-2.27876 -9.05168,-3.02414 -16.36531,-7.14473 -22.04518,-12.42051 -2.7788,-2.58112 -7.03023,-4.87279 -9.03982,-4.87279 -2.16816,0 -6.97601,-2.52356 -7.82298,-4.10615 -0.76726,-1.43363 -0.1521,-4.06148 1.26167,-5.38965 0.96398,-0.9056 1.67178,-1.09566 3.63071,-0.97494 l 2.43331,0.14996 0.30772,-2.50455 c 0.16925,-1.3775 0.67737,-3.77609 1.12916,-5.33019 1.1072,-3.80866 1.04462,-4.86795 -0.51143,-8.65703 -1.3256,-3.22788 -1.32806,-3.25817 -0.45278,-5.55008 1.35627,-3.55133 2.98665,-5.15937 6.16903,-6.08451 3.33958,-0.97085 6.04056,-0.40947 8.33877,1.73315 1.899,1.77043 2.43517,3.25869 1.78761,4.96191 -0.58903,1.54925 -1.29739,2.12423 -2.63076,2.13539 -0.7626,0.006 -0.86134,-0.25078 -0.58296,-1.51826 0.61385,-2.79482 -2.12608,-5.22041 -3.72317,-3.29604 -0.3967,0.47801 -0.47462,1.95691 -0.24692,4.68717 0.36623,4.39134 0.0169,5.97806 -2.4019,10.90939 -0.96213,1.96155 -1.5683,4.12744 -1.75567,6.2731 -0.3204,3.66903 0.2779,3.6759 1.32016,0.0152 1.14038,-4.00536 2.9216,-6.83526 6.12963,-9.73836 4.09688,-3.70747 6.76695,-4.56431 14.22328,-4.56431 5.06836,0 5.66277,0.1016 7.26022,1.24087 2.86303,2.04187 7.68701,4.1499 9.39229,4.10433 1.26221,-0.0337 2.11588,0.46532 4.07149,2.3802 2.18232,2.13687 2.87304,2.4981 5.85126,3.06005 4.44913,0.83949 8.50229,0.42888 11.68459,-1.18371 5.59438,-2.83489 9.60776,-2.73885 12.53906,0.30006 2.13024,2.20844 2.78982,4.04206 2.04333,5.68045 -0.63782,1.39985 -2.82591,1.59015 -2.46105,0.21404 0.78807,-2.97234 -0.43335,-4.16082 -4.01023,-3.90209 -2.38106,0.17223 -3.41776,0.58994 -6.29336,2.53573 -4.85719,3.28665 -7.71238,4.43947 -11.1073,4.48472 -7.84863,0.10461 -12.65298,-1.90637 -18.97097,-7.94082 -3.40773,-3.25479 -7.56377,-6.04896 -8.14005,-5.47268 -0.0948,0.0948 0.10505,1.09836 0.44413,2.23011 1.08089,3.6077 -0.9502,6.07013 -2.74609,3.32926 -1.64155,-2.50532 -7.66945,-3.24606 -10.97435,-1.34859 -1.85194,1.06326 -1.73795,1.41988 0.37502,1.1732 2.57855,-0.30103 3.8285,0.15418 7.09714,2.58468 4.7469,3.52972 6.84751,3.79388 9.60074,1.20736 1.04745,-0.98403 1.20516,-1.00535 1.94725,-0.26326 1.18458,1.18458 0.51807,3.03526 -1.94572,5.40269 -3.63054,3.48855 -8.46745,4.02006 -13.49377,1.48278 -3.51478,-1.77425 -5.22131,-1.75424 -6.58231,0.0772 -0.83556,1.12438 -0.89352,1.57948 -0.42346,3.32513 1.09359,4.0613 5.09557,7.88451 11.83105,11.30258 6.24217,3.16773 18.17102,7.35737 22.04506,7.74264 1.67603,0.16668 3.4088,0.48766 3.85061,0.71329 0.4418,0.22564 2.02262,0.53947 3.51293,0.69741 1.49031,0.15793 3.83881,0.50871 5.21889,0.77948 6.46653,1.26877 32.09111,0.61196 39.64596,-1.0162 17.20175,-3.70717 20.05184,-4.45184 23.83776,-6.2283 1.51809,-0.71233 3.21183,-1.30535 3.76386,-1.31783 0.55203,-0.0125 1.56827,-0.34543 2.25832,-0.73989 0.69004,-0.39446 1.73473,-0.72521 2.32155,-0.73499 2.0827,-0.0347 28.93097,-13.85041 32.05501,-16.495 0.55203,-0.46732 1.7941,-1.27941 2.76016,-1.80465 0.96606,-0.52524 2.49828,-1.59499 3.40494,-2.37721 0.90665,-0.78222 1.82812,-1.42222 2.04769,-1.42222 0.21957,0 1.39733,-0.91338 2.61723,-2.02972 1.21991,-1.11635 2.84964,-2.3697 3.62162,-2.78522 1.34375,-0.72327 2.01679,-1.22883 4.61353,-3.46554 0.64089,-0.55204 1.99373,-2.10039 3.00631,-3.4408 l 1.84105,-2.43709 -1.06241,-1.13088 c -0.92097,-0.98033 -0.98203,-1.30729 -0.45868,-2.45592 0.33206,-0.72877 0.75173,-1.32504 0.93261,-1.32504 0.18089,0 0.85179,-0.93038 1.4909,-2.06752 1.75628,-3.12488 1.59302,-5.15624 -0.72115,-8.97313 -5.70151,-9.40379 -15.33744,-13.56255 -22.9416,-9.90134 -3.02819,1.458 -10.23939,2.66204 -18.71687,3.12511 -8.72861,0.47679 -9.88255,0.79368 -15.57293,4.27658 -1.79522,1.09879 -3.77438,1.99781 -4.39815,1.99781 -1.47781,0 -3.223,-1.24806 -4.36034,-3.11826 -0.89044,-1.46422 -7.30468,-6.9187 -8.1361,-6.9187 -0.23161,0 -2.28026,-1.14834 -4.55255,-2.55186 -6.38245,-3.94224 -9.61257,-8.05701 -10.14759,-12.92679 -0.35939,-3.2712 2.39092,-9.85813 6.09358,-14.59395 7.60459,-9.72651 8.48476,-12.33906 6.18194,-18.34945 -3.0293,-7.906454 -11.00987,-11.114014 -20.02405,-8.048094 -7.83161,2.6637 -17.48436,10.564594 -26.37924,21.591734 -1.33587,1.6561 -3.35114,4.14024 -4.47838,5.52033 -3.12465,3.82552 -14.71754,15.26728 -18.10865,17.87259 -4.64344,3.56744 -9.55627,6.42003 -15.05543,8.7418 -2.76016,1.16535 -6.26055,2.6838 -7.77863,3.37433 -1.51809,0.69053 -3.84806,1.41182 -5.1777,1.60287 -2.20901,0.31739 -2.82585,0.14606 -7.15133,-1.98631 -2.60359,-1.28351 -4.73379,-2.5417 -4.73379,-2.79597 0,-0.25427 0.76546,-0.46231 1.70102,-0.46231 4.99685,0 15.93426,-3.18044 24.32441,-7.07317 4.18473,-1.94157 9.77147,-5.73012 12.077,-8.18982 1.54994,-1.65357 0.95884,-1.66865 -1.1891,-0.0304 -2.05395,1.56663 -11.93576,6.47302 -16.33758,8.11174 -3.66826,1.36562 -8.7861,2.80251 -14.95403,4.19849 -2.29037,0.51838 -5.52895,1.66985 -7.19685,2.55883 -3.09973,1.65214 -4.09866,1.62997 -5.0055,-0.11111 -0.20604,-0.39558 -1.39391,-2.41297 -2.63972,-4.48309 -2.45698,-4.08271 -3.56063,-7.80927 -3.03487,-10.24749 0.53647,-2.48783 2.1132,-5.20206 3.70606,-6.37972 1.52359,-1.12642 2.52698,-3.21707 2.52698,-5.26515 0,-0.78892 -0.48762,-1.41901 -1.50554,-1.94539 -0.82805,-0.4282 -1.50554,-1.08717 -1.50554,-1.46438 0,-1.18759 5.89471,-6.20361 10.69411,-9.1 6.55941,-3.95853 9.47876,-5.83158 11.10626,-7.12575 0.78099,-0.62104 1.61277,-1.12916 1.84841,-1.12916 0.6229,0 2.39661,-1.45076 4.79109,-3.918754 2.07186,-2.13546 2.12321,-2.15547 4.13863,-1.61277 2.4083,0.64848 5.74726,0.77253 7.92421,0.29439 1.94662,-0.42754 2.5545,0.37707 0.86607,1.14637 -2.82313,1.28631 -6.74254,4.717824 -8.99678,7.876864 -3.95203,5.53827 -4.91415,10.85595 -2.68556,14.84322 1.66362,2.97645 2.79493,3.54933 3.85864,1.95398 0.45731,-0.68589 1.43462,-1.92797 2.17178,-2.76017 l 1.3403,-1.51308 9.1985,-0.007 c 7.45527,-0.006 9.76417,-0.18036 12.18335,-0.92109 5.4416,-1.66617 8.79379,-3.73279 13.07061,-8.05804 5.64293,-5.7068 9.00568,-11.635204 10.55827,-18.613794 0.99232,-4.46028 1.45126,-4.87646 6.36125,-5.76858 3.15298,-0.57288 3.40028,-0.71554 3.90821,-2.2546 0.29824,-0.90366 0.93263,-1.9963 1.40975,-2.4281 1.46381,-1.32473 7.3223,-1.89985 20.16724,-1.97983 l 12.30034,-0.0766 6.77494,3.33524 c 3.72622,1.83438 8.58159,4.01427 10.78972,4.84419 2.20813,0.82992 6.15599,2.4462 8.77302,3.59173 5.64875,2.47259 9.37596,3.18962 13.00372,2.50163 2.3043,-0.43701 8.66337,-2.82032 12.85075,-4.81632 4.14602,-1.97629 10.93552,-3.72519 14.45123,-3.72246 3.66083,0.003 7.11777,0.67382 7.61479,1.47803 0.14956,0.24199 -0.24045,1.41924 -0.86669,2.61612 l -1.13862,2.17614 -4.76095,0.10655 c -5.39463,0.12073 -9.21091,1.02474 -14.29607,3.38647 -3.53303,1.64087 -6.12414,3.81047 -5.58759,4.67863 0.15885,0.25701 1.6563,0.7575 3.32766,1.112194 6.17675,1.3108 12.49931,-0.332424 18.49128,-4.805844 5.01261,-3.74226 7.96937,-13.12812 6.39061,-20.2862 -0.69192,-3.13713 -2.1328,-7.206396 -3.73166,-10.538796 -1.74905,-3.645421 -5.72067,-9.537664 -6.85771,-10.173977 -0.40756,-0.228075 -0.74101,-0.844896 -0.74101,-1.370707 0,-1.17202 2.61765,-1.791842 5.10471,-1.208715 1.88846,0.442775 2.33861,0.524526 3.48345,0.632629 0.64284,0.0607 5.96542,7.547478 5.96542,8.391003 0,0.117789 0.66812,1.62825 1.48471,3.356578 2.28242,4.830745 3.17157,9.381735 2.86727,14.675855 -0.50924,8.86012 -2.65601,14.38077 -7.71838,19.84873 -5.36295,5.792634 -11.58454,8.525024 -20.28098,8.906984 -6.65765,0.2924 -12.37902,-0.57717 -19.23835,-2.92399 -3.20537,-1.09668 -5.92884,-1.99396 -6.05215,-1.99396 -0.12331,0 0.58168,1.46612 1.56664,3.25804 1.2454,2.26572 1.81569,3.96913 1.87244,5.59276 0.10293,2.94543 -0.6687,3.25301 -2.05473,0.81905 -1.01472,-1.78192 -3.69371,-4.65137 -4.34263,-4.65137 -0.63699,0 -0.23354,0.94427 1.14416,2.67789 0.79209,0.99671 2.0418,3.04191 2.77714,4.54488 1.3525,2.76441 4.53039,6.32711 5.64371,6.32711 0.33336,0 0.94485,-0.33874 1.35887,-0.75277 0.91567,-0.91566 2.52666,-0.97853 3.21552,-0.12546 0.2786,0.34502 0.6661,1.59452 0.86112,2.77667 0.65877,3.99348 -2.38298,6.55849 -5.49595,4.63457 -1.58218,-0.97784 -5.28394,-5.26078 -5.28394,-6.11352 0,-0.23072 -0.22583,-0.41949 -0.50184,-0.41949 -0.89876,0 -0.53172,1.58209 0.98005,4.22438 1.58785,2.77529 4.4315,4.80888 6.72443,4.80888 3.2953,0 6.34725,-3.02448 6.34725,-6.29012 0,-1.54065 1.71534,-1.7173 2.49681,-0.25712 1.384,2.58602 -4.08624,9.21509 -8.59222,10.41243 -2.93818,0.78074 -6.48907,-0.20791 -8.80343,-2.45108 -1.93181,-1.87238 -4.08082,-8.02582 -4.30585,-12.32929 -0.0677,-1.2953 -0.7324,-0.55371 -1.34935,1.50554 -1.5624,5.21487 -6.28668,11.43484 -11.3521,14.9461 -2.33362,1.61763 -4.07835,3.75298 -5.72744,7.00973 -1.40464,2.774 -1.72527,2.99377 -4.38185,3.0034 -3.04528,0.0111 -7.25358,-2.03985 -10.17005,-4.95633 -3.13673,-3.13672 -3.49535,-1.91754 -0.53107,1.80544 3.08476,3.87429 10.36304,7.12328 14.773,6.5946 1.28607,-0.15418 1.57203,-0.52894 2.50924,-3.28845 1.32055,-3.88823 3.27809,-6.34769 6.82706,-8.57755 3.3248,-2.08901 6.34608,-4.87047 7.33297,-6.75091 0.39837,-0.75905 1.00904,-1.38008 1.35707,-1.38008 0.34801,0 1.47291,1.12535 2.49976,2.50078 2.1969,2.94265 5.13823,4.62586 7.72215,4.41908 2.46947,-0.19762 2.69379,0.87636 0.38457,1.84122 -2.51356,1.05023 -3.6032,0.98185 -7.65744,-0.4806 -1.91295,-0.69004 -3.59975,-1.25462 -3.74845,-1.25462 -0.5564,0 2.08965,4.8104 3.225,5.86291 3.11756,2.89009 9.3484,3.98083 13.72776,2.40311 2.70018,-0.97278 2.76016,-0.9565 2.76016,0.74894 0,1.21116 -0.58226,1.97218 -3.13654,4.09946 -2.72208,2.26702 -2.9376,2.56395 -1.63101,2.24702 2.88754,-0.70041 4.95035,-2.08109 5.38364,-3.60339 0.23015,-0.80859 0.35977,-3.13099 0.28805,-5.16087 -0.12306,-3.48296 -0.0486,-3.7725 1.32284,-5.14394 1.12073,-1.12072 1.92211,-1.45643 3.50245,-1.46718 1.59908,-0.0109 2.37074,-0.34159 3.51294,-1.50554 1.25842,-1.2824 1.83666,-1.4916 4.12277,-1.4916 2.23746,0 2.93028,0.23812 4.36962,1.50189 0.94081,0.82604 2.19847,2.68915 2.79479,4.14024 0.59633,1.45109 1.29191,3.01379 1.54573,3.47264 0.25382,0.45887 1.15658,2.63672 2.00613,4.83969 0.84955,2.20296 2.2629,4.98917 3.14077,6.19157 2.82986,3.87602 4.89607,7.04305 4.89607,7.50457 0,0.60982 3.5172,4.46765 4.07318,4.46765 0.2439,0 0.44345,-0.20795 0.44345,-0.4621 0,-0.25416 1.16375,-2.33846 2.58612,-4.63178 5.67414,-9.14859 8.65409,-16.7033 9.66999,-24.51513 0.16153,-1.24208 0.39969,-2.93581 0.52926,-3.76386 0.9554,-6.106 0.26955,-13.53889 -2.03751,-22.0813 -1.00274,-3.71287 -5.03667,-10.650714 -6.73308,-11.580024 -0.69004,-0.37801 -2.0156,-1.33086 -2.94569,-2.11744 -1.43677,-1.21509 -1.6066,-1.57566 -1.12937,-2.39776 0.30893,-0.53217 0.78203,-1.58863 1.05134,-2.34768 0.79467,-2.23984 2.16853,-1.83898 8.6,2.50924 1.73508,1.17307 3.42827,2.13285 3.76263,2.13285 0.33435,0 2.03965,-0.67731 3.78953,-1.50514 4.22567,-1.99907 6.05135,-1.94812 9.33087,0.26044 4.28107,2.88304 4.46397,3.39982 3.99271,11.281654 -0.10171,1.70117 -0.0508,1.75383 1.61802,1.67247 1.14924,-0.056 2.01962,-0.47384 2.61363,-1.25462 0.72443,-0.95222 1.05836,-1.06696 1.78989,-0.61498 3.25978,2.01405 -2.39752,6.95275 -6.84535,5.97584 -1.42522,-0.31302 -3.31574,-2.09393 -5.73485,-5.40232 -1.05161,-1.43818 -1.72505,-1.88193 -2.85608,-1.88193 -0.814,0 -1.4735,0.16938 -1.46556,0.37639 0.008,0.20701 1.10457,2.29595 2.43694,4.64209 2.74882,4.84031 4.9636,6.76902 7.25027,6.31377 1.79463,-0.3573 3.34639,0.44994 3.34639,1.74082 0,0.54637 -0.75481,1.81704 -1.67735,2.82371 -1.2844,1.40152 -2.19403,1.89947 -3.88274,2.12549 -2.77686,0.37166 -3.10464,1.49368 -1.03963,3.5587 1.01906,1.01906 2.00194,1.50402 3.04818,1.50402 1.16634,0 1.54415,0.22655 1.54415,0.92592 0,1.37804 -1.51676,2.4967 -3.90243,2.87818 -2.37211,0.37932 -2.33756,0.29884 -1.54183,3.59095 0.31786,1.31504 0.77155,3.21308 1.00822,4.21788 0.33357,1.41622 0.84199,2.02225 2.26172,2.69595 1.73685,0.8242 1.90737,0.82419 3.30274,-7e-5 1.75584,-1.0372 3.00261,-0.35421 2.07522,1.13682 -1.25588,2.01915 -3.74446,3.12274 -7.04172,3.12274 -3.08093,0 -3.18779,0.0428 -3.18779,1.27742 0,1.79249 1.97344,3.56231 4.4361,3.97837 2.39338,0.40436 2.52595,0.69684 0.95876,2.11517 -1.46171,1.32287 -2.93909,1.65772 -5.13189,1.16316 -0.97589,-0.22009 -1.76851,-0.20281 -1.76851,0.0386 0,0.77018 2.37528,2.02641 5.25185,2.77759 3.5182,0.91873 6.12609,0.2564 8.55529,-2.1728 2.95109,-2.95109 4.51154,-9.77549 2.93354,-12.82936 -1.22428,-2.36933 -2.10874,-2.83843 -5.3851,-2.85618 -2.48969,-0.0135 -2.85516,-0.1267 -2.35489,-0.7295 0.32571,-0.39245 1.42606,-0.8496 2.44523,-1.01591 5.48651,-0.89525 11.4702,4.76469 10.83201,10.24593 -0.45845,3.93746 -1.31479,5.80645 -3.73433,8.15035 -6.33679,6.13868 -14.27706,7.07127 -20.48586,2.40607 -2.7687,-2.08039 -5.08361,-4.57125 -5.08361,-5.47002 0,-1.25017 -0.87263,-0.40207 -2.13998,2.07984 -3.35922,6.57851 -5.8393,10.67506 -6.88186,11.36729 -1.05682,0.7017 -1.19834,0.66145 -2.11933,-0.60287 -0.54279,-0.74513 -1.3068,-1.35478 -1.6978,-1.35478 -0.87045,0 -0.944,0.84236 -0.0982,1.1243 0.33701,0.11234 1.18388,1.30489 1.88193,2.65012 0.72125,1.38995 1.91915,2.79989 2.77472,3.26588 1.96488,1.07019 1.9007,1.9372 -0.25092,3.38939 -1.72024,1.16104 -2.21203,1.19356 -5.58724,0.36948 -0.95263,-0.23259 -1.35927,0.0151 -2.05456,1.25122 -1.23177,2.18999 -4.02617,3.27668 -6.51127,2.53212 -2.26202,-0.67772 -2.44194,-1.70663 -0.91953,-5.25828 0.55794,-1.30161 1.03764,-3.68562 1.10416,-5.48747 0.10563,-2.8609 -0.059,-3.47259 -1.61383,-5.99469 -4.40362,-7.1433 -7.6791,-11.46509 -9.79022,-12.91758 -2.46999,-1.6994 -2.54951,-1.87374 -1.49232,-3.27147 0.73668,-0.97398 1.10341,-4.73813 0.39235,-4.02706 -0.20701,0.20701 -0.37985,0.52694 -0.38407,0.71095 -0.0448,1.94956 -2.61947,2.12752 -3.02533,0.2091 -0.16059,-0.75904 -0.40574,-1.93088 -0.54478,-2.60409 -0.29108,-1.40933 -2.05127,-4.04539 -2.70126,-4.04539 -0.2417,0 -0.0183,0.95978 0.49637,2.13285 0.51469,1.17307 1.09711,3.03618 1.29425,4.14025 0.54431,3.04838 1.81191,5.158 5.57859,9.28418 4.60251,5.04181 6.80532,7.83426 8.65609,10.97319 1.37388,2.3301 1.54532,3.0602 1.54532,6.58089 0,2.17801 -0.21844,4.53456 -0.48541,5.23677 -0.58499,1.53862 -0.68827,4.0708 -0.24086,5.90511 0.24939,1.02248 -0.24867,2.50737 -2.07574,6.18851 -2.37382,4.78272 -2.44502,4.86458 -5.69763,6.55031 -1.81158,0.93888 -4.53585,2.71839 -6.05394,3.95446 -3.14037,2.55697 -10.20862,7.35905 -12.65954,8.60075 -0.90371,0.45784 -1.98186,1.12485 -2.39589,1.48224 -1.15122,0.99377 -9.94059,5.85209 -13.04803,7.2123 -1.51809,0.66451 -4.86835,2.19058 -7.44502,3.39127 -2.57668,1.20069 -5.85123,2.53824 -7.2768,2.97234 -1.42556,0.4341 -3.50808,1.1119 -4.62782,1.50623 -4.88292,1.71955 -22.73517,5.84765 -30.23154,6.99064 -7.25143,1.10564 -9.61275,1.23738 -20.82667,1.16194 -6.95637,-0.0468 -14.11584,-0.28699 -15.90995,-0.53375 z m 12.64608,-28.17211 c -2.42675,-1.62521 -3.3686,-3.32926 -1.84013,-3.32926 0.46342,0 1.51354,0.56458 2.33361,1.25462 1.72917,1.45499 4.91966,1.69051 7.61949,0.56245 2.03785,-0.85147 3.83149,-4.33913 3.83149,-7.45019 0,-2.81027 -2.11214,-6.95762 -4.17921,-8.20619 -2.03552,-1.22952 -7.62742,-1.25522 -10.94896,-0.0503 -2.49866,0.90639 -9.82703,2.32268 -12.09707,2.33788 -0.89628,0.006 -1.38008,-0.25464 -1.38008,-0.74352 0,-0.41402 0.20679,-0.75277 0.45953,-0.75277 0.25274,0 1.27961,-0.86544 2.28193,-1.92319 4.15023,-4.37974 17.64411,-5.85392 23.77255,-2.59712 7.7226,4.10399 9.04626,12.5781 2.95877,18.94222 -1.76227,1.84236 -4.51828,2.97323 -8.04923,3.30282 -2.07821,0.19399 -2.74108,0.006 -4.76269,-1.34743 z m -198.113956,0.12675 c -0.20033,-0.32414 1.87842,-2.73457 4.95054,-5.74043 4.28707,-4.1946 5.75726,-5.32004 7.71797,-5.90816 2.53632,-0.76076 6.38316,-2.49161 10.20074,-4.58973 2.5533,-1.40328 3.74917,-1.60521 3.35028,-0.56572 -0.43453,1.13236 0.18529,1.31776 1.73182,0.51801 1.62708,-0.8414 1.77628,-1.32317 0.68915,-2.22541 -1.11732,-0.92729 -0.91449,-2.30919 0.50254,-3.42382 0.69042,-0.54309 3.56977,-1.71142 6.39855,-2.59629 8.2988,-2.59595 9.51124,-3.12827 12.3015,-5.40097 1.90251,-1.54962 3.38156,-2.29774 5.23914,-2.65002 1.42354,-0.26997 2.94271,-0.78196 3.37593,-1.13775 0.433206,-0.35578 3.158886,-1.86192 6.057056,-3.34697 2.89817,-1.48505 5.83397,-3.08278 6.52401,-3.55051 0.69005,-0.46774 2.35546,-1.46988 3.70094,-2.22697 5.02383,-2.82691 9.32562,-8.19224 10.06425,-12.5525 0.84448,-4.98502 1.54498,-5.02916 1.99113,-0.12546 0.18207,2.00111 0.453,4.65463 0.60206,5.89671 0.43035,3.58592 -0.72561,5.67615 -3.99425,7.22247 -2.58225,1.22159 -4.1262,1.82706 -13.75954,5.39581 -3.49015,1.29296 -4.78952,2.12149 -8.11445,5.17413 l -3.958856,3.63466 -3.52778,0.29575 c -3.61207,0.30283 -6.13279,1.24323 -13.5533,5.05634 -2.45591,1.262 -3.5329,2.06983 -3.20141,2.40132 0.33149,0.33149 1.91418,-0.16934 4.70465,-1.48873 4.21964,-1.99515 8.3481,-3.47758 13.48929,-4.8437 1.51809,-0.40339 4.525486,-1.81363 6.683106,-3.13387 9.34919,-5.72074 9.922,-6.00214 15.90003,-7.81121 6.70237,-2.02828 9.4035,-3.0969 10.62721,-4.20434 1.14328,-1.03466 2.82908,-0.51475 1.91239,0.58979 -0.83545,1.00666 -6.1673,4.21916 -7.89344,4.75589 -0.76128,0.23671 -2.62622,0.91749 -4.14431,1.51284 -1.51809,0.59536 -4.4539,1.69997 -6.52402,2.4547 -2.07012,0.75473 -5.40367,2.44252 -7.4079,3.75065 -3.99527,2.60766 -6.579026,3.82803 -8.104696,3.82803 -1.27946,0 -10.00764,2.89226 -11.39564,3.77618 -0.58469,0.37235 -2.87923,1.37738 -5.09897,2.2334 -4.91413,1.89509 -6.60146,3.71513 -6.58698,7.10505 0.0118,2.77473 -0.34462,5.71923 -0.77712,6.41902 -0.72099,1.16659 -2.74839,0.47458 -5.28119,-1.80263 -2.03604,-1.83057 -2.55695,-2.59874 -2.38218,-3.51293 0.30984,-1.62086 -0.52827,-1.48128 -3.41062,0.56799 -2.52433,1.79474 -3.70562,3.3597 -3.73646,4.95004 -0.0262,1.34768 -2.74811,3.85072 -4.18752,3.85072 -0.67973,0 -1.86413,-0.32595 -2.63202,-0.72434 -1.2211,-0.63351 -1.62071,-0.63051 -3.18706,0.0239 -0.985,0.41156 -2.26021,1.18917 -2.8338,1.72803 -1.15881,1.08865 -2.49319,1.27461 -3.02077,0.42097 z m -7.40889,-0.77949 c -0.83615,-0.83615 -0.17053,-2.28721 1.65618,-3.61047 3.0193,-2.18717 5.11453,-4.13407 6.92935,-6.43881 1.29682,-1.64691 2.46073,-2.40568 5.52032,-3.59879 4.04605,-1.57779 3.60793,-2.11782 -0.67398,-0.83073 -1.53682,0.46194 -3.4086,1.59476 -4.93834,2.98871 -1.35492,1.23465 -3.10511,2.38574 -3.88932,2.55798 -0.95686,0.21016 -1.42584,0.62704 -1.42584,1.26742 0,0.61718 -0.47658,1.07388 -1.34914,1.29288 -1.12508,0.28237 -1.58226,0.0594 -2.75282,-1.34277 -1.88329,-2.25588 -1.6415,-4.56348 0.68458,-6.53335 1.99662,-1.69088 4.00859,-2.1008 10.94509,-2.22996 8.30703,-0.15467 17.28411,-2.91258 20.28921,-6.23318 0.53178,-0.58761 2.56399,-1.54829 4.51603,-2.13486 1.95203,-0.58657 4.76656,-1.71003 6.2545,-2.49658 1.48794,-0.78655 3.03819,-1.43009 3.44502,-1.43009 1.01686,0 5.0538,-2.19153 10.25438,-5.56679 2.39822,-1.55648 5.4246,-3.09794 6.72529,-3.42546 3.441666,-0.86662 5.008946,-1.78783 9.490056,-5.57803 5.12244,-4.33265 9.77347,-9.24324 11.03542,-11.65126 0.54244,-1.03506 1.1474,-1.88193 1.34436,-1.88193 1.79289,0 -0.79456,4.26377 -5.21041,8.58602 -1.73503,1.69825 -5.2292,4.75054 -7.76485,6.78288 -4.17147,3.34345 -6.72604,4.92379 -17.220106,10.65293 -3.3163,1.8105 -11.95813,5.5651 -16.05913,6.97719 -1.24207,0.42767 -3.35973,1.55388 -4.70591,2.50267 -1.44445,1.01805 -4.94104,2.5564 -8.53141,3.75344 -3.3461,1.1156 -6.19673,2.14052 -6.33473,2.2776 -0.40605,0.4033 4.71922,-0.43764 5.2694,-0.8646 0.27601,-0.21419 1.34814,-0.54193 2.38251,-0.72831 1.03437,-0.18637 3.05143,-0.88128 4.48235,-1.54424 1.43093,-0.66296 2.81223,-1.07525 3.06957,-0.91621 0.52216,0.32271 -6.82646,5.17768 -7.83708,5.17768 -0.3531,0 -0.8737,0.23171 -1.15689,0.51489 -0.28319,0.2832 -2.07855,1.08079 -3.98969,1.77244 -2.86189,1.03574 -4.13869,1.90278 -7.23865,4.91559 -3.82669,3.7191 -5.62647,4.84143 -7.76375,4.84143 -0.65587,0 -1.86346,0.56457 -2.68353,1.25461 -1.53069,1.288 -2.18321,1.50489 -2.76804,0.92006 z m 317.836826,-8.20119 c 0,-0.27841 0.66341,-1.42201 1.47424,-2.54133 1.06105,-1.46473 1.64298,-3.08107 2.07625,-5.76691 l 0.602,-3.73176 2.12817,0 c 2.9589,0 5.58781,-1.21528 6.51734,-3.01281 0.82594,-1.59717 1.67532,-1.88519 2.65891,-0.9016 1.8406,1.8406 -0.76868,7.97446 -4.83347,11.3625 -1.28862,1.07408 -3.96163,2.66055 -5.94,3.52549 -3.83764,1.67779 -4.68344,1.87038 -4.68344,1.06642 z m -140.13459,-8.7912 c -3.9742,-0.74556 -7.19027,-2.02066 -9.416,-3.73323 l -1.25462,-0.96535 2.50924,-1.06387 c 1.38008,-0.58513 4.16766,-1.89479 6.19463,-2.91037 l 3.68539,-1.84651 1.56441,2.00426 c 3.00591,3.85104 5.20601,5.65262 7.34417,6.01386 2.16907,0.36646 2.69303,1.37582 1.14441,2.20461 -1.67138,0.89449 -7.76598,1.04805 -11.77163,0.2966 z m 8.72955,-4.43824 c -1.74658,-0.96874 -4.59566,-4.79885 -4.59566,-6.17811 0,-0.77132 0.76663,-1.91619 2.13285,-3.18513 2.18604,-2.0304 3.2647,-2.36311 4.87221,-1.5028 0.68094,0.36443 1.4796,0.19192 3.10355,-0.67036 1.20266,-0.63859 4.44497,-2.13836 7.20513,-3.33282 2.76016,-1.19445 5.26889,-2.36189 5.57495,-2.5943 0.30606,-0.23241 1.82863,-0.86026 3.3835,-1.39521 2.55504,-0.87906 5.13458,-2.1658 9.67921,-4.82825 1.57243,-0.92119 1.5776,-0.92051 3.37171,0.44793 1.32881,1.01353 2.12902,1.28717 3.07199,1.0505 1.99773,-0.5014 2.01233,-1.21254 0.0249,-1.21254 -2.71009,0 -2.89283,-1.27818 -0.47356,-3.31228 3.15473,-2.65247 4.90309,-4.38566 6.0299,-5.97755 l 1.05358,-1.48844 1.88071,0.99797 c 1.03438,0.54888 2.42228,1.49428 3.08422,2.10089 1.03413,0.94771 1.13003,1.29617 0.68144,2.47605 -0.37,0.97319 -0.35705,1.7715 0.0445,2.74087 0.40943,0.98844 0.41586,1.64927 0.0232,2.38297 -0.64724,1.20937 -0.95074,1.3109 -6.99572,2.3403 -12.23713,2.08386 -25.16507,8.50057 -25.16507,12.49055 0,2.85889 -5.59842,8.25526 -6.69327,6.45173 -0.12567,-0.20701 -0.0375,-1.61846 0.19589,-3.13655 0.38532,-2.50608 0.69236,-3.00653 3.33542,-5.43654 1.60107,-1.47202 4.04019,-3.1957 5.42027,-3.83042 1.38008,-0.63471 4.20298,-1.94175 6.2731,-2.90453 2.07012,-0.96277 4.60758,-2.022 5.63879,-2.35384 2.26441,-0.72865 2.90853,-1.53379 1.22706,-1.53379 -1.52379,0 -3.57258,0.82489 -10.88063,4.3808 -7.39047,3.59601 -9.04965,4.96681 -11.81534,9.7617 -2.13212,3.69645 -2.36332,3.92401 -3.98701,3.92401 -1.58625,0 -1.76672,0.16 -2.26417,2.00739 -0.46402,1.72323 -0.73316,2.00487 -1.90127,1.98961 -0.7484,-0.01 -1.88975,-0.3112 -2.53632,-0.66981 z m -20.90571,-3.29611 c -1.38008,-0.47845 -2.57746,-1.22084 -2.66084,-1.64976 -0.12459,-0.64089 0.68032,-0.84246 4.51663,-1.13113 2.56752,-0.1932 5.61478,-0.55484 6.77167,-0.80365 2.19898,-0.47294 3.82388,-0.17678 3.54932,0.64691 -0.1604,0.4812 -6.35951,3.0626 -8.52663,3.55061 -0.6275,0.14131 -2.27007,-0.13454 -3.65015,-0.61298 z m -51.31309,-2.0909 c -2.43539,-1.2055 -4.64292,-3.58497 -4.64292,-5.00455 0,-0.83095 -0.36993,-0.96519 -2.65979,-0.96519 -2.63158,0 -3.86423,-0.59232 -3.86423,-1.85684 0,-0.35882 0.52958,-0.6524 1.17684,-0.6524 2.82545,0 3.56425,-3.28847 1.25713,-5.59559 -0.89331,-0.89331 -1.4404,-1.0076 -3.59927,-0.75191 -1.90695,0.22585 -2.75876,0.10882 -3.39428,-0.46631 -1.06123,-0.96041 -2.26489,-1.00567 -4.32906,-0.16279 -1.90836,0.77924 -2.64115,0.31934 -1.50013,-0.94148 0.44716,-0.4941 1.38389,-2.18922 2.08163,-3.76693 1.16039,-2.62384 2.30406,-3.55383 2.99519,-2.43556 0.14719,0.23815 1.26633,0.71263 2.48697,1.05439 1.85551,0.51951 2.66201,0.49269 4.91942,-0.16355 2.59779,-0.7552 6.93882,-3.83852 6.93882,-4.92847 0,-0.28342 0.54419,-1.59878 1.20931,-2.92301 1.06565,-2.12166 2.66497,-6.99045 4.36732,-13.29535 1.38463,-5.12819 4.09734,-8.78234 6.5197,-8.78234 2.19946,0 1.89387,1.70154 -0.75337,4.19466 -2.42941,2.28797 -3.05057,3.30392 -4.04955,6.62326 -0.8665,2.87918 -0.26997,8.11012 1.18372,10.37981 1.87427,2.92637 4.5573,8.58119 4.875,10.27469 0.45124,2.40531 -0.69707,4.37405 -5.01185,8.59266 -3.99223,3.90323 -4.52756,5.02242 -3.46022,7.23406 0.4893,1.01387 1.03549,1.38009 2.05832,1.38009 1.77088,0 2.59672,-0.82995 2.59672,-2.60961 0,-1.64864 0.62465,-1.78423 1.97926,-0.42961 1.39457,1.39457 0.89414,3.453 -1.31838,5.42299 -2.22754,1.98336 -4.84044,2.16967 -8.0623,0.57488 z m 65.61575,-3.15118 c 0,-1.68495 3.45048,-4.68274 5.86676,-5.09706 3.17327,-0.54412 8.76877,-2.1973 11.6979,-3.45612 1.51809,-0.65241 4.79265,-2.04008 7.27679,-3.08372 4.74551,-1.99367 6.64452,-2.98086 12.79712,-6.6525 4.71585,-2.81425 6.71505,-4.26039 9.39912,-6.79892 2.1868,-2.06823 3.21953,-2.23729 2.05268,-0.33603 -1.64347,2.67786 -12.26873,9.33335 -23.49615,14.71762 -14.57826,6.99122 -14.04424,6.78608 -16.94075,6.50776 -2.26155,-0.2173 -2.85299,-0.0752 -4.30924,1.03556 -0.92835,0.7081 -1.97424,1.97868 -2.32419,2.82354 -0.75855,1.83129 -2.02004,2.04353 -2.02004,0.33987 z M 19.891094,166.85929 c -1.90388,-1.27995 -2.48238,-3.06091 -1.15919,-3.56866 0.46751,-0.1794 1.40642,0.0384 2.08646,0.48397 1.73171,1.13466 4.48577,0.53293 6.52623,-1.42591 1.90541,-1.82918 2.03391,-2.37256 0.56108,-2.37256 -1.18453,0 -4.4504,-1.8451 -4.4504,-2.51432 0,-0.23379 -0.30066,-0.72573 -0.66812,-1.09319 -1.16075,-1.16075 -1.42618,-3.25976 -0.52604,-4.1599 1.06682,-1.06681 2.40928,-0.77837 2.60097,0.55884 0.19745,1.37737 1.97539,2.97159 3.79512,3.40297 l 1.43808,0.3409 -0.19331,-3.42112 c -0.21802,-3.8584 -1.89716,-7.85246 -4.42372,-10.5224 -1.28456,-1.35747 -1.77101,-1.55834 -3.20881,-1.32501 -1.72238,0.2795 -8.20619,-0.9602 -9.9761,-1.90743 -1.67281,-0.89526 -4.8284102,-3.97103 -5.9712502,-5.82018 -1.37365,-2.22262 -1.44845,-7.36559 -0.17716,-12.18143 1.4288,-5.41252 1.16241,-8.05455 -1.29101,-12.8043 -2.43237,-4.709 -2.41225,-5.39274 0.26174,-8.894774 1.87054,-2.44976 2.16802,-3.41944 3.78203,-12.32809 1.3169502,-7.26898 2.3722802,-10.35419 6.3851902,-18.666836 3.11103,-6.444415 5.96575,-10.445932 11.02066,-15.447873 0.63654,-0.629869 1.47745,-1.759026 1.86868,-2.509238 1.08665,-2.083732 13.8374,-13.89999 17.31593,-16.046864 0.71667,-0.442314 1.52887,-1.045839 1.80488,-1.341168 1.05638,-1.13029 5.2081,-4.300819 5.6318,-4.300819 0.24443,0 1.22266,-0.803981 2.17386,-1.786623 0.95119,-0.982643 3.08444,-2.466844 4.74053,-3.298226 1.6561,-0.831381 3.24212,-1.777595 3.5245,-2.102696 0.28237,-0.325101 0.95987,-0.863673 1.50554,-1.196825 0.54568,-0.333152 3.47628,-2.154399 6.51246,-4.047215 8.47702,-5.284753 19.15024,-10.2726337 30.612706,-14.3061527 8.93355,-3.14362096 19.25786,-6.384207 20.33968,-6.384207 0.58016,0 1.44531,-0.208979 1.92256,-0.464397 1.89948,-1.016572 17.30347,-4.584378 24.15866,-5.5955273 4.00224,-0.590335 7.42058,-1.159603 7.59632,-1.265039 2.4799,-1.487845 36.6144,-2.889353 47.356,-1.94436 1.38008,0.121412 3.86423,0.310491 5.52032,0.420174 13.68681,0.906478 38.1204,5.4821483 53.6977,10.0559473 6.40334,1.880147 8.7323,2.67602804 16.31005,5.573673 2.62215,1.002682 5.55796,2.053353 6.52402,2.334822 0.96605,0.28147 5.93434,2.537152 11.04064,5.012627 12.47387,6.0471857 11.84041,5.7178277 19.9489,10.3721917 3.93347,2.257862 7.26933,4.105204 7.41301,4.105204 0.24965,0 2.13803,1.152394 6.51281,3.974474 1.66636,1.074935 5.26799,3.767947 8.15502,6.097683 1.27426,1.028276 0.52899,1.388427 -3.58167,1.730843 l -4.20899,0.350606 -3.69511,-2.717819 c -3.5209,-2.589682 -7.92546,-5.491179 -13.983,-9.211287 -1.51808,-0.932301 -4.90556,-2.717649 -7.52771,-3.967437 -2.62215,-1.249789 -5.33213,-2.625363 -6.02217,-3.056831 -0.69004,-0.431468 -3.40002,-1.804523 -6.02217,-3.051232 -2.62216,-1.246709 -5.44505,-2.61157 -6.2731,-3.033024 -3.17686,-1.6169397 -13.58334,-5.2418357 -19.82298,-6.9049527 -1.7941,-0.478202 -4.39553,-1.302518 -5.78095,-1.831813 -1.38541,-0.529295 -2.8938,-0.962354 -3.35197,-0.962354 -0.45818,0 -3.17014,-0.773715 -6.02658,-1.71936796 -2.85645,-0.945652 -7.33259,-2.10116604 -9.94699,-2.56780804 -2.61439,-0.466642 -8.028,-1.478483 -12.03023,-2.248534 -4.00224,-0.770051 -9.76094,-1.649701 -12.79712,-1.954777 -3.03618,-0.305075 -7.43989,-0.74756 -9.78603,-0.983299 -6.96942,-0.700284 -27.19501,-0.601368 -36.38395,0.177939 -9.58432,0.81284 -27.83404,3.586385 -29.21533,4.440068 -0.2661,0.164461 -3.17352,0.845497 -6.46093,1.513412 -3.2874,0.66791604 -8.68707,2.15304704 -11.99926,3.300292 -6.26172,2.168869 -11.06913,3.722481 -18.31744,5.91965 -2.34614,0.711181 -5.959436,2.073505 -8.029556,3.0273877 -2.07013,0.953882 -5.56515,2.402373 -7.76672,3.218867 -2.20157,0.816494 -4.71238,1.923041 -5.57956,2.458991 -0.86719,0.535951 -1.81497,0.974456 -2.10618,0.974456 -0.48398,0 -11.55782,6.570863 -14.97037,8.882941 -0.79448,0.538271 -2.57366,1.737482 -3.95374,2.664914 -1.38008,0.927432 -3.18673,2.221996 -4.01478,2.876809 -0.82805,0.654814 -2.63056,2.080855 -4.00558,3.16898 -1.37503,1.088126 -2.6827,1.978414 -2.90595,1.978414 -0.67923,0 -3.47147,2.108663 -6.47564,4.89032 -1.5666,1.450565 -3.08853,2.637395 -3.38207,2.637395 -0.29353,0 -2.30464,1.750193 -4.46913,3.889319 -2.16448,2.139125 -4.93335,4.834845 -6.15303,5.99049 -3.22389,3.054621 -7.51886,8.042209 -9.18882,10.670641 -5.26196,8.282051 -7.85683,20.800411 -4.92036,23.737121 0.95373,0.95382 1.69366,1.13553 4.75408,1.1675 5.07027,0.0529 7.1868,0.836 7.58051,2.80453 0.51575,2.57879 0.35828,3.79293 -0.73151,5.63999 -0.5727,0.97065 -0.96791,2.282094 -0.87824,2.914314 0.14781,1.04217 0.3856,1.13391 2.54681,0.98263 1.38007,-0.0966 2.38378,0.0465 2.38378,0.33985 0,0.85474 -3.52527,3.46788 -5.10444,3.78371 -2.56373,0.51275 -5.19128,-1.35733 -6.19533,-4.40934 -0.40918,-1.2438 -0.76062,-1.53001 -1.75718,-1.43105 -4.8334,0.47992 -5.24764,0.89367 -3.60273,3.59851 2.25161,3.70247 8.90654,7.14958 15.19095,7.86857 2.38661,0.27305 3.13641,0.63613 5.11031,2.47461 2.65423,2.47213 3.98397,5.68496 2.89565,6.99629 -0.92519,1.11479 -1.39461,0.9718 -3.24272,-0.98777 -1.51218,-1.60338 -1.90289,-1.75646 -4.48293,-1.75646 -1.5545,0 -2.82637,0.19483 -2.82637,0.43295 0,0.23813 1.41145,1.12979 3.13655,1.98148 4.41834,2.18136 8.87503,5.9288 10.26471,8.63117 1.60909,3.12903 1.97528,9.02241 0.66142,10.64495 -0.90981,1.12357 -0.92946,1.12523 -1.98727,0.16793 -0.88847,-0.80406 -1.01536,-1.32033 -0.75357,-3.06609 0.37004,-2.46757 -0.35904,-4.15425 -2.91691,-6.74805 -1.80687,-1.83226 -2.98627,-2.51094 -8.40493,-4.83655 -3.75782,-1.6128 -7.76233,-4.05396 -10.28824,-6.27175 -2.12185,-1.863 -2.18665,-1.62483 -0.35752,1.31394 1.81924,2.92287 5.7306,6.22382 9.16605,7.7356 9.06696,3.98995 10.58673,5.12017 11.51179,8.56108 0.33071,1.23015 1.20728,3.14971 1.94793,4.26571 3.14643,4.74096 4.21632,9.12363 2.8651,11.73659 -1.73768,3.36031 -7.22451,7.3395 -8.78794,6.37324 -0.26757,-0.16536 -0.7603,0.21379 -1.09497,0.84255 -1.51829,2.85256 -3.68209,4.87365 -6.54882,6.11692 -3.68616,1.59864 -5.29861,1.63154 -7.49788,0.15299 z m 19.43174,-13.67827 c 1.54218,-2.35366 -0.26589,-6.8928 -3.62137,-9.09139 -1.65533,-1.08462 -1.99078,-0.58824 -1.25718,1.86033 0.33607,1.12168 0.61654,3.4379 0.62328,5.14717 0.0185,4.69062 0.17732,5.02173 1.96543,4.09706 0.80754,-0.4176 1.83797,-1.32352 2.28984,-2.01317 z m -19.92723,-17.87931 c -0.32014,-0.59817 -1.60135,-2.339 -2.84716,-3.86851 -1.2458,-1.52951 -2.58809,-3.55396 -2.98286,-4.49878 -0.92074,-2.20365 -1.9377,-1.45392 -1.35552,0.99932 0.21935,0.92434 0.42432,1.79353 0.45549,1.93153 0.63215,2.79931 1.10179,3.7154 2.56195,4.99745 1.11087,0.97535 2.28238,1.52657 3.24441,1.52657 1.38894,0 1.46059,-0.0844 0.92369,-1.08758 z m 89.373766,26.22791 c 0,-0.28497 1.19236,-1.39897 2.64968,-2.47556 2.96782,-2.19246 7.56334,-7.02919 8.6199,-9.07234 1.45786,-2.81921 2.26437,-7.15329 3.02305,-16.24556 0.51994,-6.23105 3.27233,-11.25562 7.27491,-13.28053 2.64604,-1.33864 6.55134,-1.60433 5.53223,-0.37639 -0.34361,0.41403 -0.89756,0.75278 -1.23099,0.75278 -0.69958,0 -3.18313,3.33853 -4.67781,6.2882 -1.14585,2.26126 -2.72979,7.35043 -2.88487,9.26907 -0.12687,1.56967 -2.37518,9.13539 -3.4833,11.72158 -1.56156,3.64444 -14.8228,15.64953 -14.8228,13.41875 z m -37.448966,-8.29766 c -2.29154,-1.40212 -3.36236,-2.78684 -3.90462,-5.04925 -0.60408,-2.5203 -2.62946,-5.09657 -5.50981,-7.00844 -3.50105,-2.32387 -3.8343,-3.7813 -2.38045,-10.41079 0.56232,-2.56413 1.15253,-6.46872 1.31158,-8.67684 0.15906,-2.20813 0.52227,-5.48269 0.80714,-7.2768 0.28487,-1.7941 0.6095,-5.59388 0.7214,-8.44395 0.19593,-4.99061 0.15768,-5.22435 -1.03602,-6.33064 -0.68171,-0.631794 -1.23936,-1.574474 -1.23923,-2.094854 4e-4,-1.54078 5.40036,-5.90328 10.87946,-8.78926 l 2.09737,-1.10475 2.70894,1.64179 c 1.48992,0.90299 4.48249,3.20436 6.65016,5.11417 7.76152,6.838224 16.28814,12.234724 20.822726,13.178704 0.69004,0.14365 1.70628,0.59377 2.25831,1.00027 0.9789,0.72083 0.98139,0.78088 0.10059,2.43048 -0.54064,1.01255 -0.80615,2.28564 -0.66154,3.17203 0.13287,0.81435 0.49583,3.28728 0.8066,5.49541 0.31076,2.20813 0.75755,4.69228 0.99285,5.52033 0.2353,0.82805 0.56532,2.12658 0.73338,2.88562 0.16806,0.75905 0.50889,1.38008 0.75739,1.38008 0.26708,0 0.26868,-0.66692 0.004,-1.631 -1.1749,-4.27818 -1.75209,-10.66656 -1.16755,-12.92258 0.87397,-3.37307 2.42992,-6.56156 4.16324,-8.53141 0.85006,-0.96605 1.54609,-1.92264 1.54674,-2.12573 10e-4,-0.38667 1.81925,-1.59655 6.65079,-4.42606 2.22894,-1.305354 2.82038,-1.896044 2.59848,-2.595184 -0.62051,-1.95503 3.54119,-7.12554 7.5638,-9.3973 5.10103,-2.88079 8.67867,-3.35563 23.43746,-3.1107 8.9596,0.14869 12.41799,-0.13394 18.45087,-1.50788 5.44772,-1.24066 9.71535,-3.13434 12.56214,-5.57418 4.16156,-3.56667 9.47911,-9.940456 11.02782,-13.21828 1.90308,-4.02809 3.52567,-9.823517 3.52567,-12.593063 0,-1.646031 0.33961,-2.512275 1.50554,-3.840199 1.83783,-2.093171 1.91061,-3.675432 0.36608,-7.957943 -0.96994,-2.689322 -1.06327,-3.496569 -0.62731,-5.425721 0.28168,-1.246488 1.13319,-3.074456 1.89223,-4.062151 0.8346,-1.085998 1.38008,-2.421753 1.38008,-3.379442 0,-1.333267 0.1888,-1.583635 1.19417,-1.583635 2.5824,0 8.15668,9.655779 8.6915,15.055429 0.36202,3.655062 0.38556,13.694403 0.0353,15.055429 -0.17758,0.690041 -0.43301,1.932114 -0.56761,2.760162 -0.81121,4.990248 -5.37323,14.818234 -9.91184,21.353124 -1.42834,2.05659 -5.64479,6.75731 -9.36988,10.44605 -7.08204,7.01294 -12.08661,10.694974 -20.93527,15.402794 -2.48414,1.32167 -5.08121,2.78399 -5.77125,3.24962 -1.38494,0.93454 -4.74444,2.2528 -12.22565,4.79729 -3.57007,1.21425 -6.22662,1.76361 -9.5351,1.97183 -6.23679,0.3925 -13.4767,2.13625 -16.58551,3.99464 -3.44295,2.05814 -4.62241,4.3844 -6.0471,11.9268 -1.61716,8.56128 -2.30515,10.74443 -4.42896,14.05388 -1.77894,2.77207 -2.92671,3.50676 -3.65003,2.33641 -0.21316,-0.34491 -0.84767,0.007 -1.70569,0.94665 -0.75144,0.82273 -2.36222,2.13342 -3.5795,2.91265 -1.94707,1.24638 -2.69608,1.41878 -6.22803,1.43351 -4.447316,0.0185 -6.053926,-0.58685 -8.772796,-3.30573 -1.74466,-1.74464 -2.5188,-3.34615 -2.5188,-5.21078 0,-1.7556 1.04491,-3.7548 1.96249,-3.7548 0.61044,0 0.79768,0.52834 0.79768,2.25093 0,1.97071 0.25941,2.51035 2.08371,4.33466 1.75334,1.75333 2.46947,2.11699 4.516626,2.29362 1.9114,0.16492 2.80942,-0.0327 4.18938,-0.92189 l 1.75647,-1.13181 -2.97666,-0.39499 c -3.21704,-0.42689 -5.805676,-2.23328 -5.805676,-4.05129 0,-0.84942 0.27121,-0.91202 2.658756,-0.61372 2.49306,0.31149 2.76262,0.23516 4.32556,-1.22485 1.59629,-1.49116 1.65759,-1.68448 1.44893,-4.56925 -0.11984,-1.65672 -0.48187,-3.2762 -0.80452,-3.59885 -0.44762,-0.44762 -0.53817,-0.0994 -0.38209,1.46942 0.1125,1.13084 -0.0613,2.41968 -0.3863,2.8641 -0.54312,0.74276 -0.78281,0.74262 -2.96721,-0.002 -2.730206,-0.93028 -5.295276,-3.77488 -10.018326,-11.11008 -1.57476,-2.44571 -4.05891,-6.06902 -5.52033,-8.05181 -1.46142,-1.98279 -4.19912,-5.85697 -6.08377,-8.60929 -4.20158,-6.1361 -5.50572,-7.57566 -6.86288,-7.57566 -1.4434,0 -2.32277,2.31998 -2.73872,7.22544 -0.18485,2.17988 -0.51026,5.56735 -0.72314,7.52771 -0.71387,6.57387 -0.45148,8.90006 1.30924,11.60682 1.78401,2.74255 1.60142,3.90091 -0.76187,4.83313 l -1.34957,0.53236 1.14987,0.53325 c 0.63243,0.29329 1.04106,0.81682 0.90807,1.1634 -0.40402,1.05284 0.98428,1.75782 4.05503,2.05918 3.84908,0.37773 4.58574,0.82026 5.75114,3.45482 0.75434,1.70533 1.24928,2.2154 2.14966,2.2154 0.64333,0 1.4711,0.36318 1.8395,0.80707 0.56984,0.68663 0.52284,0.91458 -0.31494,1.52734 -0.54161,0.39615 -1.54933,0.86133 -2.23937,1.03374 -1.70014,0.4248 -3.97911,2.93293 -3.68542,4.05601 0.31424,1.20164 -1.32135,2.59815 -3.40366,2.90613 -1.24076,0.18351 -2.24608,-0.0878 -3.76196,-1.01534 z m 1.18627,-3.28706 c -0.70762,-0.55662 -2.20987,-2.69428 -3.33831,-4.75037 -1.12844,-2.05608 -3.20897,-4.8956 -4.6234,-6.31003 -1.74221,-1.74219 -2.40716,-2.73621 -2.06159,-3.08178 0.34558,-0.34557 0.86621,-0.31953 1.61414,0.0808 l 1.10404,0.59086 -1.074,-1.45267 c -1.34323,-1.81681 -1.4356,-3.87976 -0.38816,-8.66933 0.45271,-2.07012 0.97956,-6.248 1.17078,-9.28418 0.19122,-3.03618 0.41566,-6.42365 0.49876,-7.52772 0.29373,-3.90244 0.27584,-11.552924 -0.0288,-12.329364 -0.34502,-0.87929 1.46256,-3.47884 2.41899,-3.47884 0.33563,0 1.49614,-0.45166 2.57892,-1.00369 1.08278,-0.55203 2.38285,-1.0037 2.88905,-1.0037 0.50619,0 3.34504,2.43496 6.30853,5.41101 6.02416,6.049694 10.35432,9.742404 13.76227,11.736344 l 2.28881,1.33914 -0.0677,2.94389 c -0.0578,2.51597 0.24082,3.57815 2.05471,7.30741 2.33621,4.80314 2.563686,5.8897 1.23303,5.8897 -1.90481,0 -6.25142,-4.76867 -12.26359,-13.4544 -0.63234,-0.91354 -1.37554,-1.9328 -1.65156,-2.26501 -0.27602,-0.33222 -1.27628,-1.73018 -2.22281,-3.10658 -3.53146,-5.13526 -8.87473,-10.281174 -10.67549,-10.281174 -0.72853,0 -0.92219,0.22858 -0.69508,0.82043 0.21242,0.55355 -0.31736,1.4106 -1.62861,2.634704 -1.84329,1.72077 -1.96353,2.02117 -2.33318,5.82905 -0.21436,2.20813 -0.44273,5.14394 -0.50749,6.52402 -0.0648,1.38008 -0.3121,5.1063 -0.54963,8.28048 -0.57997,7.75033 -0.1599,11.12755 1.56181,12.55644 0.53713,0.44578 0.50536,0.17629 -0.12838,-1.08901 -0.46318,-0.92477 -0.81737,-2.47181 -0.7871,-3.43786 0.11269,-3.59609 0.61584,-12.37908 0.8481,-14.80451 0.13217,-1.38008 0.39785,-4.38044 0.59042,-6.66746 0.30228,-3.58996 0.54002,-4.3615 1.73972,-5.64578 1.65337,-1.76994 3.33143,-1.90541 5.21823,-0.42125 0.74558,0.58647 4.94412,5.85837 9.33008,11.71535 8.86695,11.84082 11.0301,14.11035 13.88481,14.56766 2.632836,0.42177 3.230456,0.80283 4.657956,2.96999 1.66017,2.52039 1.93895,1.34758 0.38395,-1.61523 -4.636526,-8.83416 -5.952586,-11.59901 -6.629576,-13.92779 -0.97881,-3.36698 -1.00429,-3.23248 0.61391,-3.24149 3.721536,-0.0207 3.264906,-2.45645 -0.88383,-4.71447 -4.80415,-2.61476 -12.07183,-7.969354 -16.8909,-12.444704 -4.08005,-3.78905 -4.99768,-4.41259 -6.49368,-4.41259 -1.75369,0 -4.73649,1.27044 -7.41397,3.15777 -1.41412,0.9968 -1.43964,1.09594 -1.15529,4.4876 0.15992,1.907554 0.0823,5.202044 -0.17248,7.321094 -0.25479,2.11906 -0.57485,4.86907 -0.71127,6.11114 -0.13641,1.24207 -0.3788,3.38747 -0.53865,4.76755 -0.15983,1.38008 -0.40672,3.89582 -0.54863,5.59053 -0.14191,1.69471 -0.65295,5.03204 -1.13566,7.41631 -1.10053,5.43589 -0.77058,6.55808 3.29113,11.19357 1.63912,1.87067 3.62209,4.51682 4.4066,5.88035 1.45129,2.52239 3.73648,5.01002 4.18776,4.55874 0.13688,-0.13688 -0.33009,-0.7043 -1.03771,-1.26091 z m 1.01671,-5.23936 c -1.17791,-1.2224 -3.09618,-3.25489 -4.26281,-4.51663 -2.10128,-2.2726 -3.37819,-2.97536 -2.83521,-1.56041 0.15484,0.40352 0.6834,0.86122 1.17458,1.01711 0.49117,0.1559 1.88175,1.53543 3.09018,3.06565 1.76351,2.23309 3.859,4.04984 4.84065,4.19674 0.0738,0.011 -0.82947,-0.98006 -2.00739,-2.20246 z M 133.10898,96.234356 c 3.62126,-0.45737 6.20611,-0.49775 9.28418,-0.14503 4.28041,0.49049 6.02217,0.38367 6.02217,-0.36931 0,-0.22242 -0.73395,-0.62274 -1.631,-0.8896 -0.89705,-0.26686 -2.95807,-0.87894 -4.58003,-1.36019 -2.09432,-0.62139 -3.8397,-0.79067 -6.02217,-0.58409 -4.14483,0.39234 -9.46666,2.09946 -10.6437,3.41425 l -0.96086,1.07332 1.75647,-0.25276 c 0.96605,-0.13902 4.01478,-0.53799 6.77494,-0.88659 z M 240.1843,153.21569 c -0.13003,-0.13004 -2.70827,-0.42893 -5.72942,-0.66421 -3.02115,-0.23528 -6.15166,-0.74993 -6.95669,-1.14366 -0.80503,-0.39373 -2.21648,-1.81323 -3.13655,-3.15444 -2.61529,-3.81239 -2.40591,-6.26157 1.13623,-13.29052 2.52074,-5.0021 3.28281,-6.02636 7.42391,-9.97804 12.33395,-11.7698 14.40258,-12.90878 27.47597,-15.12817 7.40892,-1.25776 9.24639,-2.20883 11.03385,-5.71107 1.31993,-2.58617 2.88247,-2.56169 4.36062,0.0683 0.60286,1.07264 1.09611,2.61391 1.09611,3.42503 0,3.14132 -3.12858,10.49946 -5.28944,12.4403 -2.57632,2.31399 -6.15659,8.82115 -7.50532,13.64093 -1.42355,5.08716 -1.9571,5.36792 -10.95742,5.76608 -4.18732,0.18524 -8.51663,0.54216 -9.62069,0.79317 -2.81393,0.63973 -6.38454,2.30119 -7.27679,3.386 -0.86779,1.05506 -1.32008,1.12228 6.40298,-0.95164 4.82976,-1.29696 14.70976,-2.05363 19.06578,-1.46016 2.64308,0.36009 2.70139,1.00165 0.37862,4.16589 -2.99864,4.08497 -6.25036,6.06539 -12.04657,7.33684 -2.91457,0.63933 -9.3741,0.9404 -9.85518,0.45934 z m -104.06423,-1.63562 c -4.70702,-1.09912 -6.82611,-4.58747 -6.82343,-11.23237 0.002,-5.34575 0.77295,-9.00151 2.63336,-12.48982 2.0249,-3.79671 2.93821,-4.79116 6.20921,-6.76085 2.88477,-1.73712 5.25953,-2.42227 11.42809,-3.29713 1.906,-0.27032 5.18291,-1.05243 7.28203,-1.73802 2.26757,-0.74061 4.00028,-1.06284 4.26919,-0.79393 0.26891,0.26891 0.0541,0.6659 -0.52937,0.97815 -1.72425,0.92279 -6.60263,7.34599 -8.11872,10.68966 -0.80608,1.77777 -1.72785,4.67857 -2.04839,6.44621 -0.75788,4.17947 -2.81128,10.6622 -4.32796,13.66365 -0.82957,1.64169 -1.7807,2.66663 -3.07804,3.3169 -2.03109,1.01806 -5.28781,1.59306 -6.89597,1.21755 z m 55.17356,-31.47569 c -0.66325,-1.01224 -0.78145,-1.95664 -0.54615,-4.3639 0.70621,-7.22531 5.06182,-11.84437 16.38403,-17.375044 8.16034,-3.98617 10.75417,-7.34628 12.84582,-16.64077 0.64623,-2.87161 0.63889,-3.48692 -0.0669,-5.61194 -0.94956,-2.85887 -0.62578,-5.25538 1.14522,-8.476556 2.13085,-3.875678 4.56618,-6.866379 8.77603,-10.777413 3.99777,-3.714009 6.97873,-5.608263 13.43288,-8.535946 1.79411,-0.813827 3.82659,-1.845043 4.51663,-2.291592 3.24792,-2.101819 13.26576,-5.555238 23.83777,-8.217515 9.45975,-2.382185 32.54694,-0.944773 51.43938,3.202626 5.37858,1.180743 9.47948,1.740483 20.32483,2.774179 4.14024,0.394618 9.10853,0.94107 11.04064,1.214346 1.93212,0.273271 9.38455,0.871534 16.56098,1.329465 13.15292,0.839295 20.90597,0.750192 29.24533,-0.336108 2.28413,-0.29753 4.48218,-0.414636 4.88455,-0.260228 1.29525,0.49703 0.24162,1.709775 -2.42513,2.791372 -6.36592,2.581941 -21.08375,3.400515 -44.00002,2.447195 -6.7624,-0.281316 -14.81181,-0.613303 -17.88758,-0.737746 -6.1158,-0.247446 -12.22188,0.624679 -15.96442,2.280179 -1.17313,0.518931 -3.76485,2.482952 -5.75938,4.364494 -3.09366,2.918405 -3.74965,3.331802 -4.46521,2.813895 -4.16866,-3.017198 -6.47215,-3.802299 -10.92829,-3.724688 -4.99306,0.08696 -8.81495,2.209224 -13.83335,7.681561 -2.2604,2.464854 -4.96687,5.83703 -6.01438,7.49374 -1.04751,1.6567 -2.14938,3.0122 -2.4486,3.0122 -0.29921,0 -1.37765,-0.66324 -2.39653,-1.47385 -2.10005,-1.6708 -5.86594,-3.25417 -8.97484,-3.773476 -1.58357,-0.26452 -3.1349,-0.0362 -6.27309,0.923036 -3.60928,1.1033 -4.54599,1.64299 -6.97442,4.01829 -1.72974,1.69192 -3.39462,3.97784 -4.34273,5.96269 l -1.53756,3.21886 -3.05268,0.64782 c -3.83869,0.81463 -4.18405,0.55051 -5.04689,-3.85967 -0.36644,-1.87296 -1.33041,-5.21204 -2.14216,-7.42017 -0.81174,-2.20813 -1.51475,-4.450116 -1.56223,-4.982196 -0.0927,-1.03941 3.30041,-3.753724 4.72971,-3.783464 1.38127,-0.02876 4.19424,3.202964 6.07059,6.97425 0.99798,2.00586 1.95634,3.37785 2.14558,3.07165 0.18811,-0.30436 0.35015,-1.96495 0.36011,-3.69019 0.0152,-2.637736 -0.26033,-3.661626 -1.73178,-6.435283 l -1.74987,-3.298469 1.59652,-1.27389 c 2.21733,-1.769253 7.25599,-4.247844 9.48566,-4.666129 1.57092,-0.29471 2.50379,-0.02901 5.99118,1.706277 4.42553,2.202123 6.68411,4.124917 10.65455,9.07053 3.198,3.983444 3.47795,2.968458 0.72189,-2.617351 -2.36746,-4.798241 -5.21725,-8.393799 -8.09031,-10.207481 -1.07403,-0.678001 -1.81847,-1.450034 -1.65433,-1.715626 0.45218,-0.731644 5.00279,-2.662899 9.77552,-4.148689 6.21528,-1.934864 13.66084,-2.982662 19.69977,-2.772302 l 5.14169,0.179104 3.51293,2.456479 c 1.93212,1.351064 4.35981,3.256394 5.39487,4.234064 1.03506,0.977674 1.88192,1.607623 1.88192,1.399894 0,-0.599939 -1.51955,-3.404013 -3.08427,-5.69148 -0.79068,-1.15589 -1.26704,-2.206573 -1.05859,-2.334851 0.39427,-0.242628 8.6248,0.469358 10.46288,0.905098 7.17163,1.700114 32.46794,4.276123 46.62491,4.747975 10.54228,0.351374 25.59822,-0.04963 26.24766,-0.699059 0.14664,-0.146645 -6.03784,-0.267399 -13.74329,-0.268353 -12.99633,-0.0015 -22.70494,-0.56911 -34.08382,-1.99231 -2.20813,-0.276177 -5.03102,-0.599291 -6.27309,-0.718028 -2.9614,-0.283103 -19.12023,-2.776497 -20.01652,-3.088657 -0.38247,-0.133205 -3.0753,-0.576271 -5.98407,-0.98459 -6.95432,-0.976214 -20.34081,-0.958629 -27.036,0.03553 -5.38991,0.800327 -12.84326,2.743727 -15.41726,4.019935 -0.80145,0.397363 -1.73857,0.72248 -2.08249,0.72248 -0.34392,0 -2.7144,0.806811 -5.26775,1.792916 -5.34363,2.063708 -15.91789,8.240288 -23.56174,13.76275 -7.04781,5.091839 -8.66808,5.979489 -11.71515,6.417999 -2.80126,0.40314 -3.44228,1.408307 -1.51188,2.370717 2.8134,1.40263 3.52297,3.33323 2.63938,7.18115 -0.29669,1.29205 -0.64131,2.87929 -0.76582,3.5272 -0.48283,2.51254 -3.48918,7.7527 -6.10823,10.64685 -3.51928,3.88892 -7.04632,6.25903 -15.32041,10.295004 -3.90252,1.9036 -7.46192,4.01963 -8.56706,5.09305 -3.50379,3.40322 -4.9338,7.48864 -4.24631,12.13133 0.24909,1.68208 -0.8448,1.87442 -1.8588,0.32685 z m 17.38331,-3.22775 c -1.94976,-0.35247 -2.43837,-1.11747 -1.31122,-2.05291 0.42321,-0.35124 0.77654,-0.89326 0.78517,-1.20448 0.009,-0.31122 0.57115,-1.69502 1.25004,-3.0751 0.67888,-1.38008 1.2364,-2.86944 1.23892,-3.30969 0.007,-1.18715 1.65351,-2.46156 3.18065,-2.46156 1.46881,0 1.56945,0.42078 1.38022,5.77125 -0.2122,5.99979 -1.49205,7.24213 -6.52378,6.33249 z m -12.58608,-0.79386 c 0,-2.8256 5.73807,-8.72601 9.61575,-9.88779 2.85053,-0.85404 3.17304,-0.10072 1.21794,2.84482 -0.91559,1.37942 -1.93917,3.35663 -2.27462,4.39382 -0.70764,2.18802 -1.68634,2.84905 -4.07973,2.75552 -0.94555,-0.0369 -2.34022,0.11374 -3.09926,0.33487 -1.11751,0.32554 -1.38008,0.24159 -1.38008,-0.44124 z m 23.27921,-1.36467 c -0.20177,-0.32648 -0.33882,-1.95562 -0.30456,-3.62032 0.0412,-2.00413 -0.26141,-3.75854 -0.89584,-5.19275 -0.52697,-1.19131 -0.84351,-2.46471 -0.70342,-2.82978 0.14009,-0.36506 1.37301,-1.18754 2.73982,-1.82772 l 2.48512,-1.16396 1.31983,1.2155 c 1.68954,1.55599 3.685,5.77545 3.69134,7.80542 0.005,1.67556 -1.82579,3.45035 -5.48354,5.31518 -2.0649,1.05274 -2.36324,1.084 -2.84875,0.29843 z m 11.40676,-10.69114 c -0.65692,-1.23832 -2.29457,-3.28056 -3.63921,-4.538314 l -2.4448,-2.28683 0.82883,-1.60933 c 2.88929,-5.6101 4.95723,-6.18095 10.13504,-2.79776 1.74543,1.14046 3.28285,2.35851 3.41649,2.70676 0.56183,1.46412 -5.07098,10.776944 -6.51838,10.776944 -0.32096,0 -1.12104,-1.01316 -1.77797,-2.25147 z M 211.18427,92.490156 c 1.22255,-3.47837 1.2134,-5.44867 -0.0522,-11.24751 -1.14785,-5.25925 -1.00678,-6.94776 0.92715,-11.09725 2.56836,-5.510725 17.21106,-18.568354 20.82239,-18.568354 1.46341,0 0.89611,0.659011 -3.6688,4.261911 -5.36742,4.236291 -7.71044,6.794846 -9.42469,10.291667 -1.26642,2.58333 -1.35541,3.210286 -1.38891,9.786026 -0.0211,4.13568 -0.30249,7.9514 -0.68413,9.27578 -1.38732,4.81437 -4.81138,10.04536 -6.57541,10.04536 -0.88814,0 -0.88654,-0.0983 0.0446,-2.74763 z m 26.13735,-3.79715 c -0.92247,-0.4958 -2.78532,-1.05387 -4.13968,-1.24014 -1.35436,-0.18627 -2.5625,-0.50052 -2.68476,-0.69834 -0.12225,-0.1978 0.0127,-1.28529 0.29984,-2.41662 0.60092,-2.36744 1.17749,-2.63294 5.74025,-2.64316 3.67582,-0.008 4.72333,0.83558 4.71302,3.79652 -0.0151,4.3165 -0.74609,4.91229 -3.92867,3.20174 z m -5.96259,-10.25213 c -0.24063,-0.42998 -0.34537,-1.57099 -0.23276,-2.53558 0.21983,-1.88298 0.30408,-1.928 4.65867,-2.48964 2.57007,-0.33148 3.20614,0.10015 3.94521,2.67713 0.57427,2.00235 -0.0718,2.49053 -3.24056,2.44864 -1.38008,-0.0183 -3.0006,0.12757 -3.60115,0.32402 -0.74906,0.24505 -1.22928,0.11174 -1.52941,-0.42457 z m -60.91834,-6.91539 c -0.3262,-0.62104 -1.22506,-1.85683 -1.99745,-2.746196 -1.11451,-1.28329 -1.36876,-2.00831 -1.23193,-3.51293 0.0948,-1.042743 0.19532,-2.29819 0.22332,-2.78988 0.0776,-1.362637 1.3809,-1.575275 2.80229,-0.457214 0.76547,0.602122 1.69118,0.894438 2.31549,0.731177 0.57208,-0.1496 0.83015,-0.410044 0.57348,-0.578765 -0.25667,-0.168717 -0.60571,-1.09717 -0.77566,-2.063227 -0.16995,-0.966056 -0.46138,-2.281183 -0.64763,-2.922504 -0.31246,-1.075916 -0.2073,-1.153492 1.36055,-1.003696 1.6391,0.156602 1.69918,0.237786 1.69918,2.295843 0,1.173425 0.16938,2.133209 0.37639,2.132852 1.14977,-0.002 -0.1618,-7.770814 -2.0063,-11.883957 -1.02674,-2.289585 -4.00177,-6.183205 -4.72446,-6.183205 -0.27433,0 0.27223,0.900756 1.21458,2.00168 0.94235,1.100918 2.02533,2.964027 2.40662,4.140243 0.38129,1.17621 0.98147,2.703142 1.33374,3.393182 1.16759,2.287151 0.85708,2.741453 -2.28138,3.337894 -3.85234,0.732106 -6.39362,1.987196 -12.00222,5.927684 -2.55331,1.7939 -5.26329,3.389198 -6.02217,3.545107 -0.75888,0.155909 -2.66723,0.644246 -4.24076,1.085176 -5.29622,1.48411 -9.70904,0.32528 -16.62187,-4.365016 -3.05507,-2.072842 -4.63399,-3.634406 -7.29739,-7.217167 -1.86934,-2.514598 -4.17386,-5.889066 -5.12118,-7.498823 -3.64537,-6.194541 -8.86388,-9.555289 -11.82479,-7.615227 -2.0474,1.341509 -3.28066,3.760907 -3.01717,5.919088 0.32684,2.677171 1.47041,4.173927 4.27473,5.594988 4.51081,2.285796 7.08839,5.186415 7.08839,7.976753 0,1.807114 -2.90655,3.848344 -5.47972,3.848344 -1.82046,0 -2.17462,-0.212864 -3.37689,-2.029613 l -1.34314,-2.029612 1.00925,-1.357859 c 1.51379,-2.036689 3.78319,-2.09406 5.23357,-0.132312 1.3042,1.764029 1.94954,1.951826 1.94954,0.567343 0,-1.699186 -2.34291,-3.04751 -5.29548,-3.04751 -4.52311,0 -7.91786,-2.074562 -11.164936,-6.823015 -1.55826,-2.278774 -1.58856,-4.875906 -0.0767,-6.572016 3.269326,-3.667668 5.344426,-4.498386 12.343686,-4.941503 5.29782,-0.335405 5.73433,-0.28806 8.28048,0.898082 5.61129,2.614059 9.43287,6.496312 15.87272,16.124706 1.82435,2.727642 4.18552,5.5885 5.24705,6.357461 2.07249,1.501307 2.03184,1.672768 -0.52676,2.221815 -2.35669,0.505722 -1.548,0.964154 1.45878,0.826954 3.51017,-0.160164 4.17759,-0.487585 8.74305,-4.289121 6.12665,-5.101497 11.7463,-7.300162 18.6903,-7.312507 1.17307,-0.002 2.13285,-0.190903 2.13285,-0.4196 0,-0.789416 -3.11166,-5.110781 -4.42263,-6.141988 -1.08661,-0.854727 -1.73151,-0.976927 -3.7155,-0.704062 -2.28971,0.31492 -2.40067,0.274651 -2.40067,-0.871162 0,-0.660738 0.28229,-1.501448 0.62731,-1.868249 0.51848,-0.551209 0.192,-0.618567 -1.88193,-0.388279 -3.60585,0.400389 -5.2694,1.141513 -5.2694,2.347568 0,1.495084 -1.92779,1.302696 -4.0259,-0.401779 -0.95994,-0.779841 -2.16199,-1.571391 -2.67122,-1.758996 -0.50924,-0.187611 -1.04117,-0.781979 -1.18208,-1.320818 -0.14374,-0.549644 -0.993,-1.222872 -1.93466,-1.533652 -2.58914,-0.854491 -4.83705,-3.709507 -4.68007,-5.944043 0.10419,-1.483159 -0.17633,-2.128647 -1.49621,-3.442767 -1.36896,-1.362995 -1.53881,-1.777358 -1.07998,-2.6347 0.68768,-1.284937 1.60925,-1.293454 2.75676,-0.02548 0.49369,0.545524 1.09327,0.870943 1.3324,0.723154 0.69809,-0.431443 0.50027,-1.715014 -0.26431,-1.715014 -1.84056,0 -1.22778,-3.351117 0.81245,-4.443014 1.96237,-1.050228 4.03312,-0.558824 4.84893,1.150686 0.61687,1.292657 0.5994,1.757448 -0.1412,3.755684 l -0.8452,2.280458 1.73876,-1.685273 1.73876,-1.685273 3.72963,0.349495 c 2.05131,0.192223 4.56349,0.193063 5.58266,0.0019 1.77773,-0.333504 1.81121,-0.376908 0.82414,-1.068281 -1.55856,-1.091657 -1.27899,-2.849403 0.73437,-4.617149 3.40633,-2.990805 4.50509,-3.3319 10.2811,-3.191635 2.89817,0.07038 6.5222,0.448345 8.05341,0.839925 6.68449,1.709443 13.03047,1.418857 16.05556,-0.735193 0.80346,-0.572111 1.92677,-2.093535 2.49625,-3.380943 1.73254,-3.9167027 3.55954,-4.2212007 6.09816,-1.016357 1.38909,1.753633 1.67984,2.554564 1.71244,4.717201 0.026,1.723276 0.32322,2.888878 0.87824,3.443895 1.29823,1.298233 1.02827,2.108326 -1.51454,4.54476 -1.81915,1.743057 -2.21795,2.390605 -1.75647,2.852088 0.83716,0.837154 0.76793,1.119897 -0.70194,2.866735 -1.20095,1.427245 -1.57426,2.303392 -1.67371,3.928119 -0.0603,0.984961 -1.6131,0.734118 -3.80225,-0.614218 -1.51846,-0.935246 -2.72041,-1.2402 -4.93483,-1.252048 -3.19235,-0.01708 -3.70469,-0.831787 -1.05598,-1.679178 2.44473,-0.782122 3.73249,-2.296369 3.73249,-4.388944 0,-1.601207 0.22899,-1.976189 1.63101,-2.670855 2.4478,-1.212828 3.65837,-2.406462 4.89095,-4.82251 1.19101,-2.334575 1.17534,-5.602472 -0.0322,-6.714299 -0.47153,-0.434157 -0.54486,-0.365907 -0.31381,0.292069 0.16583,0.472236 0.002,2.012404 -0.36359,3.422594 -0.80186,3.091271 -2.89445,5.408632 -6.34224,7.02349 -2.36975,1.109934 -3.06562,2.075692 -1.97936,2.747037 0.27601,0.170588 0.49629,0.917868 0.4895,1.660623 -0.009,1.037718 -0.42104,1.553848 -1.77709,2.228697 -3.13003,1.557671 -5.60516,0.974901 -11.00768,-2.591758 -4.68657,-3.094004 -8.34274,-4.068492 -10.69694,-2.851087 -1.74396,0.901837 -2.0087,1.241182 -2.6135,3.350025 -0.36759,1.281693 -0.22731,1.736596 0.91795,2.976827 0.74351,0.805169 2.02934,1.596096 2.85739,1.757616 l 1.50554,0.293671 -1.63066,-0.753235 c -2.18178,-1.00781 -2.97794,-2.777369 -2.14948,-4.777458 0.65607,-1.583875 1.86668,-2.218166 4.1118,-2.154333 1.74191,0.04953 4.27058,1.370274 4.90962,2.564347 0.27692,0.517426 1.07402,1.083969 1.77135,1.258986 1.18802,0.29818 1.84204,1.804632 0.78345,1.804632 -0.26642,0 -1.2262,0.643522 -2.13285,1.430049 -2.25302,1.954495 -3.98028,2.27863 -7.18222,1.347801 -3.33558,-0.969679 -5.57863,-3.127308 -6.32258,-6.081798 -0.66664,-2.647475 -2.0998,-3.168443 -1.61033,-0.585371 0.16999,0.897052 0.50309,2.011363 0.74023,2.476246 0.67416,1.321612 0.52807,1.709657 -0.88624,2.35406 -0.72457,0.330136 -2.26853,1.37963 -3.43103,2.332208 -1.16249,0.952578 -3.73573,2.483304 -5.7183,3.401609 -1.98257,0.918311 -3.46691,1.807415 -3.29854,1.975785 0.47375,0.473749 3.88113,-0.878269 7.6171,-3.022403 4.16487,-2.390287 6.81573,-3.620795 7.80022,-3.620795 0.41117,0 1.73203,0.446703 2.93524,0.992673 2.44916,1.111338 8.80696,1.401908 10.52743,0.481137 0.54836,-0.293469 1.34978,-0.462843 1.78095,-0.376386 0.60125,0.120564 0.18833,1.047106 -1.77199,3.97612 -1.40576,2.100408 -2.84861,4.061829 -3.20633,4.358712 -0.48288,0.400745 -1.66263,0.03106 -4.5801,-1.435149 -3.97793,-1.99918 -6.20418,-2.377197 -9.78376,-1.661281 -2.55509,0.511016 -1.78714,1.04169 1.15445,0.797752 7.78596,-0.645672 13.34051,3.903747 15.79157,12.933984 1.39765,5.149273 1.35608,7.958109 -0.15067,10.178418 -1.28766,1.897481 -1.0773,2.605759 0.29524,0.994035 2.60515,-3.059148 2.48344,-8.540358 -0.33899,-15.266486 -1.79849,-4.285975 -1.81322,-4.376382 -0.98122,-6.022172 0.46458,-0.918978 1.67194,-2.800029 2.68303,-4.18011 1.01109,-1.380081 2.23208,-3.130274 2.71332,-3.889319 0.73936,-1.166173 1.21955,-1.380081 3.09811,-1.380081 1.22272,0 2.74188,0.204747 3.3759,0.454993 0.63403,0.250247 2.50776,0.724119 4.16386,1.053049 2.65161,0.526659 3.31746,0.918497 5.57738,3.282189 1.93272,2.021468 2.66239,3.217285 2.95554,4.843663 0.21409,1.187738 0.47038,2.561942 0.56955,3.053778 0.27489,1.36341 -1.22801,1.629043 -2.49301,0.440637 -0.61496,-0.577722 -2.27511,-1.317475 -3.68924,-1.643897 -2.28467,-0.527361 -2.75832,-0.486019 -4.25122,0.371091 -0.92444,0.530739 -2.15294,1.895489 -2.7314,3.034332 -0.92649,1.824005 -0.99349,2.428852 -0.56427,5.094095 0.87313,5.421655 0.14045,6.924468 -5.41028,11.097045 -1.59514,1.19909 -3.03227,2.874234 -3.94496,4.598304 -0.78964,1.491644 -1.78443,3.107274 -2.21063,3.590304 -1.1257,1.27579 -3.45976,1.13595 -4.18823,-0.25092 z m -33.9756,-9.250613 c -0.36228,-0.144969 -0.79512,-0.127144 -0.96188,0.0396 -0.16676,0.166759 0.12965,0.285371 0.65868,0.263581 0.58462,-0.02409 0.70354,-0.142997 0.3032,-0.303197 z m 28.76214,-21.236632 c -0.55203,-0.237218 -1.79411,-0.417447 -2.76016,-0.400509 l -1.75647,0.03076 1.75647,0.369746 c 0.96605,0.203344 2.20813,0.383577 2.76016,0.40051 1.00369,0.03081 1.00369,0.03081 0,-0.40051 z m -9.326,-1.826304 c 0.50359,-0.436115 -3.29607,-0.115189 -3.97296,0.335571 -0.52604,0.350294 -0.0726,0.402527 1.50554,0.173398 1.24207,-0.180334 2.35241,-0.409372 2.46742,-0.508969 z m 16.60279,-7.510323 c 0.69004,-0.423308 0.84095,-0.641137 0.33534,-0.484065 -0.5056,0.157073 -1.23955,0.285587 -1.63101,0.285587 -0.39144,0 -0.71172,0.225831 -0.71172,0.501848 0,0.685012 0.52573,0.60556 2.00739,-0.30337 z m 0.033,-1.721678 c 1.51716,-0.811959 1.24188,-2.827425 -0.50992,-3.733313 -2.81861,-1.457574 -5.04337,-0.744166 -5.04337,1.617251 0,0.849582 0.45518,1.376319 1.631,1.887378 1.98383,0.862255 2.66434,0.901931 3.92231,0.228684 z m -3.73968,-1.251485 c -1.31005,-1.310046 0.15446,-3.114372 1.96416,-2.419923 1.23255,0.472973 1.97917,2.226878 1.16704,2.741507 -1.03638,0.656721 -2.28069,0.528926 -3.1312,-0.321584 z m -26.84149,-5.380339 c 0.54557,-1.023881 0.52382,-1.064942 -0.23327,-0.440399 -0.45921,0.378817 -0.83493,0.886937 -0.83493,1.129157 0,0.766564 0.44596,0.47902 1.0682,-0.688758 z m 89.09709,48.470114 c -0.55732,-0.55732 -0.38358,-1.12196 0.66913,-2.17467 1.26107,-1.261066 4.75833,-1.401796 5.21571,-0.20988 0.54164,1.41148 0.32722,1.83839 -0.77816,1.54933 -0.59552,-0.15573 -1.86517,0.0438 -2.82145,0.44332 -2.02523,0.8462 -1.85938,0.81775 -2.28523,0.3919 z m 117.3487,-28.772594 c -0.18458,-0.29866 0.413,-0.501848 1.47593,-0.501848 0.98234,0 1.78608,0.225831 1.78608,0.501848 0,0.276016 -0.66416,0.501847 -1.47592,0.501847 -0.81176,0 -1.6155,-0.225831 -1.78609,-0.501847 z m -9.5351,-1.075239 c -1.6561,-0.244505 -5.38232,-0.788819 -8.28049,-1.209578 -8.52481,-1.237652 -10.78758,-2.681658 -4.39117,-2.802262 6.72862,-0.126862 9.14756,-0.322031 11.34826,-0.915596 1.20425,-0.324806 3.91423,-0.594093 6.02217,-0.598413 2.10795,-0.0045 5.97804,-0.457776 8.60019,-1.00767 2.62215,-0.549895 6.23546,-1.191387 8.02956,-1.425539 3.79868,-0.495768 5.87723,-0.945186 11.04065,-2.387181 2.07012,-0.578125 5.34468,-1.430821 7.27679,-1.89488 1.93211,-0.464059 5.31281,-1.395952 7.51266,-2.070873 3.73559,-1.14609 6.28815,-1.23332 6.28815,-0.214889 0,0.240835 -0.62104,0.589001 -1.38008,0.773702 -0.75905,0.184701 -2.84799,0.977309 -4.64209,1.761352 -1.79411,0.784042 -6.53657,2.486147 -10.5388,3.782454 -4.00224,1.296306 -7.84137,2.551257 -8.53141,2.788771 -4.29089,1.476953 -23.57166,6.075443 -24.84146,5.924728 -0.27602,-0.03277 -1.85684,-0.259616 -3.51293,-0.504126 z M 186.55575,16.422785 c 0,-0.289723 0.38139,-1.249507 0.84753,-2.132853 0.46613,-0.883345 0.97426,-2.509408 1.12916,-3.613473 0.23149,-1.6500027 0.49999,-2.0382127 1.50813,-2.1805127 0.75392,-0.106417 1.47904,0.172245 1.88193,0.723228 0.71926,0.9836527 0.87822,5.0968347 0.23607,6.1085447 -0.76169,1.200037 -5.60282,2.146232 -5.60282,1.095066 z"
       id="path4655"
       inkscape:connector-curvature="0" />
  </g>
</svg>
